[img]http://img408.imageshack.us/img408/1071/arthurhz.jpg[/img]
[code]
Arthur Christmas 2011 720p TS XviD 5.1 AC3-26K

Imdb: 
http://www.imdb.com/title/tt1430607/

Plot:
On Christmas night at the North Pole, Santa's youngest son looks to use his father's high-tech 

operation for an urgent mission.

Sources:
ILLUMANTI video + audio!

Notes:
thnxs ILLUMANTI for the ts we orignally had cam for this movie whichg was nearly done syncing it until 

we saw the ts was out! wich was much better in picture and sound so here is our 720p ts encode!
added a few filters to make the video look nice and did notice it did have some dark scenes tried my 

best to brightenn these up :P alos added a few other filters to make it look nice :)
take it or leave it guyz!

encoded by 26K!

Greetz:
Xtreme Encode|FYA|ILLUMANTI|CM8|RX|VISION|HDSCENE|NIGHTMAREZ|xTriLL
To all the people who have helped me :P you know who you are

Anything to offer email us @: 26k@hushmail.me

Video
ID                                       : 0
Format                                   : MPEG-4 Visual
Format profile                           : Advanced Simple@L5
Format settings, BVOP                    : 2
Format settings, QPel                    : No
Format settings, GMC                     : No warppoints
Format settings, Matrix                  : Default (H.263)
Codec ID                                 : XVID
Codec ID/Hint                            : XviD
Duration                                 : 1h 31mn
Bit rate                                 : 2 300 Kbps
Width                                    : 1 280 pixels
Height                                   : 544 pixels
Display aspect ratio                     : 2.35:1
Frame rate                               : 24.000 fps
Color space                              : YUV
Chroma subsampling                       : 4:2:0
Bit depth                                : 8 bits
Scan type                                : Progressive
Compression mode                         : Lossy
Bits/(Pixel*Frame)                       : 0.138
Stream size                              : 1.47 GiB (85%)
Writing library                          : XviD 63

Audio
ID                                       : 1
Format                                   : AC-3
Format/Info                              : Audio Coding 3
Mode extension                           : CM (complete main)
Codec ID                                 : 2000
Duration                                 : 1h 31mn
Bit rate mode                            : Constant
Bit rate                                 : 384 Kbps
Channel(s)                               : 6 channels
Channel positions                        : Front: L C R, Side: L R, LFE
Sampling rate                            : 48.0 KHz
Bit depth                                : 16 bits
Compression mode                         : Lossy
Stream size                              : 251 MiB (14%)
Alignment                                : Aligned on interleaves
Interleave, duration                     : 42 ms (1.00 video frame)

[/code]
Screens:
[img]http://img825.imageshack.us/img825/421/vlcsnap2011121921h59m00.png[/img]
[img]http://img815.imageshack.us/img815/9426/vlcsnap2011121921h59m04.png[/img]
[img]http://img546.imageshack.us/img546/5690/vlcsnap2011121921h59m11.png[/img]
[img]http://img714.imageshack.us/img714/6892/vlcsnap2011121921h59m14.png[/img]
[img]http://img202.imageshack.us/img202/3910/vlcsnap2011121921h59m37.png[/img]
[img]http://img812.imageshack.us/img812/5418/vlcsnap2011121921h59m44.png[/img]
[img]http://img31.imageshack.us/img31/6/vlcsnap2011121921h59m51.png[/img]
[img]http://img714.imageshack.us/img714/2088/vlcsnap2011121922h00m16.png[/img]

[img]http://img851.imageshack.us/img851/5503/26ks.jpg[/img]#
Thank you smallz for banner!
